<svg width="280" height="220" viewBox="0 0 280 220" fill="none" xmlns="http://www.w3.org/2000/svg">
  <rect width="280" height="220" rx="24" fill="#FFF3E7"/>
  <ellipse cx="140" cy="194" rx="74" ry="12" fill="#F2DFCC"/>
  <circle cx="140" cy="54" r="24" fill="#F5C9AA" stroke="#5A3618" stroke-width="3"/>
  <path d="M120 52C127 44 153 44 160 52" stroke="#5A3618" stroke-width="3" stroke-linecap="round"/>
  <circle cx="132" cy="58" r="2.8" fill="#5A3618"/>
  <circle cx="148" cy="58" r="2.8" fill="#5A3618"/>
  <path d="M132 68C136 73 144 73 148 68" stroke="#5A3618" stroke-width="2.5" stroke-linecap="round"/>
  <rect x="106" y="80" width="68" height="78" rx="20" fill="#F2A964" stroke="#5A3618" stroke-width="3"/>
  <path d="M106 100L84 78" stroke="#5A3618" stroke-width="5" stroke-linecap="round"/>
  <path d="M174 100L196 78" stroke="#5A3618" stroke-width="5" stroke-linecap="round"/>
  <circle cx="82" cy="76" r="8" fill="#F5C9AA" stroke="#5A3618" stroke-width="3"/>
  <circle cx="198" cy="76" r="8" fill="#F5C9AA" stroke="#5A3618" stroke-width="3"/>
  <path d="M124 158L118 188" stroke="#5A3618" stroke-width="6" stroke-linecap="round"/>
  <path d="M156 158L162 188" stroke="#5A3618" stroke-width="6" stroke-linecap="round"/>
  <rect x="109" y="184" width="18" height="8" rx="4" fill="#5A3618"/>
  <rect x="153" y="184" width="18" height="8" rx="4" fill="#5A3618"/>
  <circle cx="56" cy="40" r="5" fill="#F59E0B"/>
  <circle cx="224" cy="40" r="5" fill="#F59E0B"/>
  <circle cx="140" cy="28" r="5" fill="#F97316"/>
</svg>
