<svg width="280" height="220" viewBox="0 0 280 220" fill="none" xmlns="http://www.w3.org/2000/svg">
  <rect width="280" height="220" rx="20" fill="#F2DEC4"/>
  <ellipse cx="140" cy="196" rx="74" ry="12" fill="#CFB89E"/>
  <ellipse cx="140" cy="44" rx="44" ry="16" fill="#F1E0C3" stroke="#5A3A1C" stroke-width="3"/>
  <path d="M104 46C112 24 168 24 176 46" fill="#F4E8D2" stroke="#5A3A1C" stroke-width="3"/>
  <rect x="124" y="40" width="32" height="10" rx="5" fill="#8A4A1D"/>
  <circle cx="140" cy="64" r="20" fill="#F7C8A6" stroke="#4B2E1A" stroke-width="3"/>
  <path d="M131 63C133 59 137 59 139 63" stroke="#23354D" stroke-width="2.5" stroke-linecap="round"/>
  <path d="M141 63C143 59 147 59 149 63" stroke="#23354D" stroke-width="2.5" stroke-linecap="round"/>
  <path d="M130 73C136 79 144 79 150 73" stroke="#4B2E1A" stroke-width="3" stroke-linecap="round"/>
  <path d="M112 94H168V158H112V94Z" fill="#F59E0B" stroke="#4B2E1A" stroke-width="3"/>
  <path d="M112 106H168" stroke="#4B2E1A" stroke-width="3"/>
  <path d="M124 112H156V158H124V112Z" fill="#60A5FA"/>
  <path d="M112 106L86 112" stroke="#4B2E1A" stroke-width="5" stroke-linecap="round"/>
  <path d="M168 106L194 96" stroke="#4B2E1A" stroke-width="5" stroke-linecap="round"/>
  <circle cx="82" cy="114" r="8" fill="#F7C8A6" stroke="#4B2E1A" stroke-width="3"/>
  <circle cx="198" cy="94" r="8" fill="#F7C8A6" stroke="#4B2E1A" stroke-width="3"/>
  <rect x="126" y="158" width="28" height="8" rx="4" fill="#8A4A1D"/>
  <circle cx="140" cy="162" r="6" fill="#D4AF37" stroke="#4B2E1A" stroke-width="2"/>
  <path d="M126 166L120 190" stroke="#4B2E1A" stroke-width="6" stroke-linecap="round"/>
  <path d="M154 166L160 190" stroke="#4B2E1A" stroke-width="6" stroke-linecap="round"/>
  <rect x="111" y="188" width="18" height="8" rx="4" fill="#5A3A1C"/>
  <rect x="151" y="188" width="18" height="8" rx="4" fill="#5A3A1C"/>
</svg>
