<svg width="280" height="220" viewBox="0 0 280 220" fill="none" xmlns="http://www.w3.org/2000/svg">
  <rect width="280" height="220" rx="20" fill="#F7E6CF"/>
  <ellipse cx="140" cy="196" rx="74" ry="12" fill="#D8C3AA"/>
  <ellipse cx="140" cy="44" rx="44" ry="16" fill="#F1E0C3" stroke="#5A3A1C" stroke-width="3"/>
  <path d="M104 46C112 24 168 24 176 46" fill="#F4E8D2" stroke="#5A3A1C" stroke-width="3"/>
  <rect x="124" y="40" width="32" height="10" rx="5" fill="#8A4A1D"/>
  <circle cx="140" cy="64" r="20" fill="#F7C8A6" stroke="#4B2E1A" stroke-width="3"/>
  <circle cx="133" cy="64" r="2.5" fill="#23354D"/>
  <circle cx="147" cy="64" r="2.5" fill="#23354D"/>
  <path d="M132 73C136 79 144 79 148 73" stroke="#4B2E1A" stroke-width="3" stroke-linecap="round"/>
  <path d="M112 94H168V158H112V94Z" fill="#F59E0B" stroke="#4B2E1A" stroke-width="3"/>
  <path d="M112 106H168" stroke="#4B2E1A" stroke-width="3"/>
  <path d="M124 112H156V158H124V112Z" fill="#60A5FA"/>
  <path d="M112 106L92 84" stroke="#4B2E1A" stroke-width="5" stroke-linecap="round"/>
  <path d="M168 106L188 84" stroke="#4B2E1A" stroke-width="5" stroke-linecap="round"/>
  <circle cx="90" cy="82" r="8" fill="#F7C8A6" stroke="#4B2E1A" stroke-width="3"/>
  <circle cx="190" cy="82" r="8" fill="#F7C8A6" stroke="#4B2E1A" stroke-width="3"/>
  <rect x="126" y="158" width="28" height="8" rx="4" fill="#8A4A1D"/>
  <circle cx="140" cy="162" r="6" fill="#D4AF37" stroke="#4B2E1A" stroke-width="2"/>
  <path d="M126 166L120 190" stroke="#4B2E1A" stroke-width="6" stroke-linecap="round"/>
  <path d="M154 166L160 190" stroke="#4B2E1A" stroke-width="6" stroke-linecap="round"/>
  <rect x="111" y="188" width="18" height="8" rx="4" fill="#5A3A1C"/>
  <rect x="151" y="188" width="18" height="8" rx="4" fill="#5A3A1C"/>
  <circle cx="56" cy="38" r="4.8" fill="#F59E0B"/>
  <circle cx="224" cy="38" r="4.8" fill="#F59E0B"/>
  <circle cx="140" cy="26" r="4.8" fill="#F97316"/>
</svg>
