<svg width="280" height="220" viewBox="0 0 280 220" fill="none" xmlns="http://www.w3.org/2000/svg">
  <rect width="280" height="220" rx="24" fill="#EEF5FA"/>
  <ellipse cx="140" cy="194" rx="72" ry="12" fill="#D9E5EF"/>
  <circle cx="140" cy="54" r="24" fill="#F5C8A9" stroke="#2C3E50" stroke-width="3"/>
  <path d="M118 52C126 44 154 44 162 52" stroke="#2C3E50" stroke-width="3" stroke-linecap="round"/>
  <circle cx="132" cy="58" r="2.8" fill="#2C3E50"/>
  <circle cx="148" cy="58" r="2.8" fill="#2C3E50"/>
  <path d="M132 68C136 72 144 72 148 68" stroke="#2C3E50" stroke-width="2.5" stroke-linecap="round"/>
  <rect x="106" y="80" width="68" height="78" rx="20" fill="#6BA7C7" stroke="#2C3E50" stroke-width="3"/>
  <path d="M106 102L86 126" stroke="#2C3E50" stroke-width="5" stroke-linecap="round"/>
  <path d="M174 102L194 124" stroke="#2C3E50" stroke-width="5" stroke-linecap="round"/>
  <circle cx="84" cy="130" r="8" fill="#F5C8A9" stroke="#2C3E50" stroke-width="3"/>
  <circle cx="196" cy="128" r="8" fill="#F5C8A9" stroke="#2C3E50" stroke-width="3"/>
  <path d="M124 158L118 188" stroke="#2C3E50" stroke-width="6" stroke-linecap="round"/>
  <path d="M156 158L162 188" stroke="#2C3E50" stroke-width="6" stroke-linecap="round"/>
  <rect x="109" y="184" width="18" height="8" rx="4" fill="#2C3E50"/>
  <rect x="153" y="184" width="18" height="8" rx="4" fill="#2C3E50"/>
</svg>
